HIERARCHY
ROOT ui
{
	 OFFSET 0 0 0
	 CHANNELS 3 XPosition YPosition Z Position
	 EndSite
	 {
	 OFFSET 0 -1 0
	 }
}
ROOT li
{
	 OFFSET 0 0 0
	 CHANNELS 3 XPosition YPosition Z Position
	 EndSite
	 {
	 OFFSET 0 -1 0
	 }
}
ROOT ul
{
	 OFFSET 0 0 0
	 CHANNELS 3 XPosition YPosition Z Position
	 EndSite
	 {
	 OFFSET 0 -1 0
	 }
}
ROOT ll
{
	 OFFSET 0 0 0
	 CHANNELS 3 XPosition YPosition Z Position
	 EndSite
	 {
	 OFFSET 0 -1 0
	 }
}
ROOT tt
{
	 OFFSET 0 0 0
	 CHANNELS 3 XPosition YPosition Z Position
	 EndSite
	 {
	 OFFSET 0 -1 0
	 }
}
ROOT tb
{
	 OFFSET 0 0 0
	 CHANNELS 3 XPosition YPosition Z Position
	 EndSite
	 {
	 OFFSET 0 -1 0
	 }
}
ROOT td
{
	 OFFSET 0 0 0
	 CHANNELS 3 XPosition YPosition Z Position
	 EndSite
	 {
	 OFFSET 0 -1 0
	 }
}
ROOT v
{
	 OFFSET 0 0 0
	 CHANNELS 3 XPosition YPosition Z Position
	 EndSite
	 {
	 OFFSET 0 -1 0
	 }
}
ROOT bn
{
	 OFFSET 0 0 0
	 CHANNELS 3 XPosition YPosition Z Position
	 EndSite
	 {
	 OFFSET 0 -1 0
	 }
}
MOTION
Frames: 30
Frame Time: 0.002
-0.032431026458740235	3.263000026345253E-5	0		0.6591359252929687	-2.670378662109375	0		-1.03599853515625	0.1812020721435547	0		-0.20718392944335937	-3.176100830078125	0		1.6047255859375	-0.8559833374023438	0		3.005646728515625	-0.22596099853515625	0		4.38049267578125	0.400583740234375	0		5.9573310546875	0.378170654296875	0		-0.2001683349609375	5.94659423828125	0		
-0.004404634952545166	0.0030524959564208983	0		0.6774219360351562	-2.659134765625	0		-0.9681469116210938	0.17538594055175782	0		-0.2523660125732422	-3.138612060546875	0		1.614845458984375	-0.8995538940429687	0		3.016965087890625	-0.20849269104003906	0		4.39942626953125	0.39994561767578124	0		5.95731201171875	0.37955661010742187	0		-0.20041331481933594	5.94716943359375	0		
-0.02449944496154785	1.6968000680208207E-5	0		0.6525725708007812	-2.655045166015625	0		-0.9763108520507813	0.16907333374023437	0		-0.21316938781738282	-3.13383837890625	0		1.6649324951171875	-0.9459364013671875	0		3.01577490234375	-0.21678831481933594	0		4.39453271484375	0.407781005859375	0		5.96100732421875	0.3980635986328125	0		-0.19968576049804687	5.9467060546875	0		
0.04553353881835937	0.0021659660339355467	0		0.7005008544921875	-2.663427001953125	0		-0.9726906127929688	0.15150326538085937	0		-0.28153973388671877	-3.10692919921875	0		1.6461845703125	-0.9839537963867188	0		3.046944091796875	-0.207736328125	0		4.40550048828125	0.4082909851074219	0		5.95359765625	0.36692254638671873	0		-0.19994584655761719	5.947244140625	0		
-0.03250077819824219	0.0022503080368041994	0		0.6507345581054688	-2.655873291015625	0		-0.9727069702148438	0.1519912414550781	0		-0.2222091064453125	-3.096587890625	0		1.716267578125	-1.0317572021484376	0		3.024947509765625	-0.2066381072998047	0		4.40547314453125	0.4090096435546875	0		5.9572841796875	0.3836783447265625	0		-0.2144070587158203	5.9380458984375	0		
-0.002616252899169922	-0.0028330910205841063	0		0.6845535278320313	-2.670005126953125	0		-1.03391015625	0.14367562866210937	0		-0.26287982177734376	-3.0852724609375	0		1.6925118408203126	-1.0707061767578125	0		3.02788623046875	-0.20905462646484374	0		4.40856396484375	0.41565054321289063	0		5.95977587890625	0.34163140869140624	0		-0.3309269714355469	5.92685595703125	0		
-0.024545248031616212	0.002097681999206543	0		0.656073486328125	-2.647910400390625	0		-1.02212939453125	0.133892578125	0		-0.2602496337890625	-3.05883251953125	0		1.733901123046875	-1.10296630859375	0		3.05181787109375	-0.2119082794189453	0		4.420630859375	0.42109042358398435	0		5.95563134765625	0.360422119140625	0		-0.32924551391601564	5.924298828125	0		
0.05038530731201172	-9.077410101890564E-4	0		0.6800389404296875	-2.653879638671875	0		-0.9672989501953125	0.12624452209472656	0		-0.25092889404296875	-3.04754443359375	0		1.7494910888671875	-1.1247318115234375	0		3.063887939453125	-0.20754811096191406	0		4.42949853515625	0.41656539916992186	0		5.95262841796875	0.34449722290039064	0		-0.3314334716796875	5.92780322265625	0		
-0.02765616226196289	-9.046030044555664E-4	0		0.65314453125	-2.65186083984375	0		-0.97953564453125	0.11590901184082031	0		-0.2662582092285156	-3.0177822265625	0		1.7637227783203124	-1.16449462890625	0		3.0475458984375	-0.22365492248535157	0		4.43358349609375	0.423109619140625	0		5.9489248046875	0.3302807006835938	0		-0.2124949493408203	5.9359013671875	0		
0.04422998809814453	-0.005879868030548096	0		0.6761126708984375	-2.656846435546875	0		-0.9886969604492187	0.10949742889404297	0		-0.2559595489501953	-3.006547119140625	0		1.798262451171875	-1.188674560546875	0		3.077507080078125	-0.2246962127685547	0		4.43429150390625	0.41069033813476563	0		5.9489111328125	0.3314083557128906	0		-0.21272238159179688	5.93633740234375	0		
-0.027706396102905272	-3.58400009572506E-5	0		0.6512348022460938	-2.65290625	0		-0.9869072265625	0.10085414123535157	0		-0.24359695434570314	-2.991367431640625	0		1.800720947265625	-1.2162420654296875	0		3.07922900390625	-0.2372047882080078	0		4.4463447265625	0.41602621459960937	0		5.9447392578125	0.34825912475585935	0		-0.19777296447753906	5.94546044921875	0		
0.047215656280517576	-0.0020985090732574463	0		0.6553511352539062	-2.64855419921875	0		-0.9951098022460938	0.09339334869384766	0		-0.23025582885742188	-2.97622216796875	0		1.849273193359375	-1.2387332763671874	0		3.118302978515625	-0.2314652862548828	0		4.47451806640625	0.4280230712890625	0		5.9580341796875	0.3209711608886719	0		-0.32942779541015627	5.925443359375	0		
-0.02473963165283203	0.004711054801940918	0		0.6465972900390625	-2.635964111328125	0		-0.99923779296875	0.0908406982421875	0		-0.24260716247558595	-2.9435830078125	0		1.8526917724609375	-1.26635595703125	0		3.118065673828125	-0.23997662353515625	0		4.4744384765625	0.42854910278320313	0		5.94466162109375	0.3502765502929687	0		-0.1972598114013672	5.9452373046875	0		
-0.005981760978698731	-0.002275918960571289	0		0.6434874877929687	-2.6395029296875	0		-1.0115545654296876	0.08043608856201172	0		-0.234436767578125	-2.933363525390625	0		1.88714697265625	-1.290603759765625	0		3.17086279296875	-0.24554739379882812	0		4.4881865234375	0.4217782287597656	0		5.9524345703125	0.35084066772460937	0		-0.21272979736328124	5.93491259765625	0		
-0.031122049331665038	-0.0014135290384292602	0		0.66833984375	-2.642603271484375	0		-1.015779052734375	0.07686519622802734	0		-0.24896353149414063	-2.904707275390625	0		1.886679443359375	-1.308183349609375	0		3.1476103515625	-0.2506496734619141	0		4.499029296875	0.4220400390625	0		5.94631982421875	0.3139439392089844	0		-0.2130118865966797	5.93528125	0		
-0.006322265148162842	-0.0015388330221176147	0		0.6530603637695312	-2.64893212890625	0		-1.0712391357421875	0.06428755950927735	0		-0.3655540466308594	-2.875066650390625	0		1.9138974609375	-1.3393250732421875	0		3.156359130859375	-0.253401611328125	0		4.497533203125	0.40751138305664064	0		5.9468525390625	0.3095462036132812	0		-0.32955145263671876	5.92491064453125	0		
-0.0035123589038848877	0.001758111000061035	0		0.6559452514648437	-2.643626708984375	0		-1.005676513671875	0.05434184265136719	0		-0.3184986267089844	-2.861635986328125	0		1.9413887939453125	-1.353487060546875	0		3.21602490234375	-0.2581736450195313	0		4.5234892578125	0.4184187622070312	0		5.95036669921875	0.3257011413574219	0		-0.32793905639648435	5.92222412109375	0		
-7.54634976387024E-4	0.0050493102073669435	0		0.6478811645507813	-2.6321171875	0		-1.0100349731445313	0.05176332092285156	0		-0.32036700439453125	-2.8402529296875	0		1.98487548828125	-1.3649791259765625	0		3.2157265625	-0.2577991027832031	0		4.5283408203125	0.4267039794921875	0		5.9501533203125	0.3263851318359375	0		-0.3302248840332031	5.9256103515625	0		
-0.007221107006072998	-4.8633700609207155E-4	0		0.6693931884765625	-2.639198486328125	0		-1.02667529296875	0.03742333221435547	0		-0.34445550537109376	-2.826441162109375	0		1.9982117919921876	-1.3809007568359375	0		3.22104345703125	-0.2745628356933594	0		4.5428310546875	0.4187645263671875	0		5.9485185546875	0.33225360107421875	0		-0.21239064025878907	5.934650390625	0		
-0.03261375427246094	3.446609973907471E-4	0		0.6518106689453125	-2.647525390625	0		-1.0211713256835937	0.03265481567382812	0		-0.3016988830566406	-2.817938232421875	0		2.048427001953125	-1.400559814453125	0		3.2476591796875	-0.2737629089355469	0		4.5565498046875	0.4248110046386719	0		5.94961962890625	0.3275404357910156	0		-0.21275962829589845	5.934994140625	0		
0.03477816390991211	-0.008641761779785156	0		0.6415407104492188	-2.63699853515625	0		-1.0138848266601563	0.018852436065673828	0		-0.35576687622070313	-2.79654345703125	0		2.068480712890625	-1.4256470947265625	0		3.26686181640625	-0.29184478759765625	0		4.5740927734375	0.42375091552734373	0		5.9469853515625	0.3056336975097656	0		-0.34357882690429686	5.91388134765625	0		
-0.030467256546020508	0.0039656410217285155	0		0.6289874267578125	-2.63843505859375	0		-1.0074564208984376	0.01407232093811035	0		-0.32086245727539064	-2.77488720703125	0		2.092803466796875	-1.4348294677734375	0		3.273578369140625	-0.28169866943359373	0		4.58572265625	0.42877859497070314	0		5.93472021484375	0.33083932495117185	0		-0.3628523254394531	5.9195966796875	0		
0.04094144058227539	-0.0011029059886932373	0		0.642506103515625	-2.634384033203125	0		-1.014856201171875	0.019569967269897463	0		-0.3420856018066406	-2.7571328125	0		2.103035888671875	-1.4467486572265624	0		3.30594921875	-0.2880755920410156	0		4.60597412109375	0.4156092224121094	0		5.948611328125	0.32879400634765626	0		-0.21193785095214843	5.93298486328125	0		
-0.03148544311523437	0.004648637771606445	0		0.6419178466796875	-2.63405908203125	0		-1.01478662109375	-0.0010769799947738647	0		-0.3231710510253906	-2.7311591796875	0		2.147960205078125	-1.473358642578125	0		3.318459228515625	-0.2860755920410156	0		4.6275595703125	0.4203980712890625	0		5.948240234375	0.3291138610839844	0		-0.21132102966308594	5.93231298828125	0		
0.03275292205810547	-0.007278237819671631	0		0.639267333984375	-2.6356923828125	0		-1.0234754638671875	-0.008542005538940429	0		-0.3475257263183594	-2.717334716796875	0		2.149088134765625	-1.48811279296875	0		3.343598388671875	-0.30233551025390626	0		4.6428984375	0.4132938232421875	0		5.945537109375	0.30702099609375	0		-0.21167784118652344	5.93266552734375	0		
-0.0396774673461914	-5.122050046920776E-4	0		0.6484400024414062	-2.6455556640625	0		-1.01121728515625	-0.018410022735595704	0		-0.3261024169921875	-2.714404296875	0		2.173295654296875	-1.4983206787109375	0		3.3212666015625	-0.290662353515625	0		4.6444873046875	0.4194533996582031	0		5.94653271484375	0.30203427124023435	0		-0.3292392578125	5.92332763671875	0		
0.04185874938964844	0.0032331008911132813	0		0.6508977661132812	-2.640278564453125	0		-1.0117643432617187	-0.018013851165771484	0		-0.3433082580566406	-2.691701904296875	0		2.216293701171875	-1.5189002685546875	0		3.386460693359375	-0.3037176513671875	0		4.67291064453125	0.41707818603515623	0		5.94984765625	0.31941708374023436	0		-0.32763516235351564	5.92066064453125	0		
-0.03365185546875	0.006082509994506836	0		0.6404331665039062	-2.630736572265625	0		-1.0204466552734375	-0.02444578742980957	0		-0.31568353271484373	-2.67787353515625	0		2.246488037109375	-1.52922265625	0		3.3569296875	-0.3019017944335938	0		4.6762421875	0.4101959533691406	0		5.93724951171875	0.3098721923828125	0		-0.21170417785644532	5.93275146484375	0		
0.0377161750793457	0.00104367196559906	0		0.6465137329101562	-2.644513916015625	0		-1.0372603759765624	-0.03770396041870117	0		-0.3302842407226563	-2.67520166015625	0		2.2777646484375	-1.53555859375	0		3.3909765625	-0.3223374328613281	0		4.69571533203125	0.4100018310546875	0		5.941671875	0.2874087219238281	0		-0.21103277587890626	5.932123046875	0		
-0.04183660888671875	0.0010042389631271362	0		0.6340217895507813	-2.636906982421875	0		-1.03779052734375	-0.037266891479492185	0		-0.30264654541015623	-2.66135009765625	0		2.277798828125	-1.554268310546875	0		3.39843359375	-0.32223355102539064	0		4.70318115234375	0.4090544128417969	0		5.9341611328125	0.2880291137695313	0		-0.2113274841308594	5.93252783203125	0		
